<svg width="25" height="25" viewBox="0 0 25 25" fill="none" xmlns="http://www.w3.org/2000/svg">
<rect x="0.75" y="0.11499" width="24" height="24" rx="12" fill="#006FFD"/>
<mask id="mask0_272_9624" style="mask-type:alpha" maskUnits="userSpaceOnUse" x="8" y="7" width="9" height="10">
<path d="M11.1421 15.7019L15.3089 11.5352L13.3298 9.55605L9.163 13.7228C9.10564 13.7802 9.06489 13.8521 9.04508 13.9309L8.58325 16.2817L10.9336 15.8199C11.0126 15.8001 11.0847 15.7593 11.1421 15.7019ZM16.654 10.1901C16.8221 10.0219 16.9166 9.79384 16.9166 9.55605C16.9166 9.31826 16.8221 9.09021 16.654 8.92205L15.9429 8.21092C15.7747 8.04281 15.5467 7.94836 15.3089 7.94836C15.0711 7.94836 14.8431 8.04281 14.6749 8.21092L13.9638 8.92205L15.9429 10.9012L16.654 10.1901Z" fill="#006FFD"/>
</mask>
<g mask="url(#mask0_272_9624)">
<rect x="7.75" y="7.11499" width="10" height="10" fill="white"/>
</g>
</svg>
